STARTFONT 2.1
COMMENT 
FONT -FontForge-FontView-Medium-R-Normal--17-120-100-100-P-123-unicodeplane-2
SIZE 12 100 100
FONTBOUNDINGBOX 40 30 -9 -10
STARTPROPERTIES 21
FONT_ASCENT 20
FONT_DESCENT 9
COPYRIGHT "public domain"
XMBDFED_INFO "converted from Imamura's K14-1-2004,2"
FOUNDRY "FontForge"
FAMILY_NAME "CharView"
WEIGHT_NAME "Medium"
SLANT "R"
SETWIDTH_NAME "Normal"
ADD_STYLE_NAME ""
PIXEL_SIZE 17
POINT_SIZE 120
RESOLUTION_X 100
RESOLUTION_Y 100
SPACING "P"
AVERAGE_WIDTH 123
CHARSET_REGISTRY "unicodeplane"
CHARSET_ENCODING "2"
DEFAULT_CHAR 65533
CAP_HEIGHT 11
X_HEIGHT 7
ENDPROPERTIES
CHARS 303
STARTCHAR uni2000B
ENCODING 11
SWIDTH 960 0
DWIDTH 14 0
BBX 13 14 1 -2
BITMAP
0240
0220
0210
FFF8
0200
0200
6200
5200
8A00
0600
0600
0980
3060
C018
ENDCHAR
STARTCHAR uni2123D
ENCODING 4669
SWIDTH 960 0
DWIDTH 14 0
BBX 13 13 1 -1
BITMAP
0200
0240
0220
0220
0200
7FF0
0200
0200
0200
0200
0200
0200
FFF8
ENDCHAR
STARTCHAR uni2131B
ENCODING 4891
SWIDTH 960 0
DWIDTH 14 0
BBX 13 13 1 -2
BITMAP
7FF0
5510
5510
7CA0
5440
5440
7DA0
4418
0200
3FE0
0200
0200
FFF8
ENDCHAR
STARTCHAR uni2146E
ENCODING 5230
SWIDTH 960 0
DWIDTH 14 0
BBX 13 14 1 -2
BITMAP
2080
2080
2FF8
2A50
F7F0
23C0
23C0
2240
2FF8
3220
E490
0BE8
0080
0FF8
ENDCHAR
STARTCHAR uni218BD
ENCODING 6333
SWIDTH 960 0
DWIDTH 14 0
BBX 13 14 1 -2
BITMAP
2000
2FF8
2080
2FF8
F890
56B0
56B0
5000
57F0
E490
27F0
3490
57F0
8410
ENDCHAR
STARTCHAR uni20B9F
ENCODING 2975
SWIDTH 960 0
DWIDTH 14 0
BBX 13 14 1 -2
BITMAP
0100
0100
F900
8900
8918
8960
8980
8F00
8900
F900
8900
8108
0108
00F8
ENDCHAR
STARTCHAR uni216B4
ENCODING 5812
SWIDTH 960 0
DWIDTH 14 0
BBX 13 14 1 -2
BITMAP
0200
4210
4210
4210
7FF0
4010
0800
FFF8
0840
1080
3E80
4380
0C40
7020
ENDCHAR
STARTCHAR uni21E34
ENCODING 7732
SWIDTH 960 0
DWIDTH 14 0
BBX 13 14 1 -2
BITMAP
2080
2080
2140
AA20
AFF0
A888
AFF0
AC90
AC90
AFF0
F880
8940
8220
0C18
ENDCHAR
STARTCHAR uni231C4
ENCODING 12740
SWIDTH 960 0
DWIDTH 14 0
BBX 13 13 1 -2
BITMAP
3FE0
2020
3FE0
2020
3FE0
2030
11C0
FD00
31F8
3920
5520
9220
1420
ENDCHAR
STARTCHAR uni235C4
ENCODING 13764
SWIDTH 960 0
DWIDTH 14 0
BBX 13 14 1 -2
BITMAP
2120
27F8
2120
F840
27F8
3200
6A00
69F0
62A0
A2A0
A2A0
22A8
24A8
2818
ENDCHAR
STARTCHAR uni2373F
ENCODING 14143
SWIDTH 960 0
DWIDTH 14 0
BBX 13 14 1 -2
BITMAP
2120
27F8
2120
FAA0
27F8
32A0
6AE0
6BF0
6080
A7F8
A1C0
22A0
2498
2080
ENDCHAR
STARTCHAR uni23763
ENCODING 14179
SWIDTH 960 0
DWIDTH 14 0
BBX 12 14 2 -2
BITMAP
0400
FFE0
1F00
E4E0
FFE0
9220
FFE0
F840
8FF0
F840
FA40
8140
F840
80C0
ENDCHAR
STARTCHAR uni23CFE
ENCODING 15614
SWIDTH 960 0
DWIDTH 14 0
BBX 13 14 1 -2
BITMAP
1240
0A40
0A80
3FE0
0500
FFF8
0880
1240
2220
DA58
0780
0B00
12C0
6630
ENDCHAR
STARTCHAR uni247F1
ENCODING 18417
SWIDTH 960 0
DWIDTH 14 0
BBX 13 14 1 -2
BITMAP
1200
9200
67F8
2BE0
6220
93E0
1220
33E0
5100
93E0
1D40
1080
6360
2C18
ENDCHAR
STARTCHAR uni2548E
ENCODING 21646
SWIDTH 960 0
DWIDTH 14 0
BBX 13 14 1 -2
BITMAP
0080
FCA0
2090
27F8
2080
7BF0
4880
CFF8
4890
4850
7860
4868
4198
0608
ENDCHAR
STARTCHAR uni2550E
ENCODING 21774
SWIDTH 960 0
DWIDTH 14 0
BBX 13 14 1 -2
BITMAP
0080
F880
27F0
2220
2120
7940
4FF8
C810
4BD0
4A50
7BD0
4A10
4010
0030
ENDCHAR
STARTCHAR uni25771
ENCODING 22385
SWIDTH 960 0
DWIDTH 14 0
BBX 13 14 1 -2
BITMAP
0400
0BF8
7090
1060
1040
FFF8
1048
3850
3460
5440
9040
1040
1040
10C0
ENDCHAR
STARTCHAR uni259C4
ENCODING 22980
SWIDTH 960 0
DWIDTH 14 0
BBX 13 14 1 -2
BITMAP
0200
7FF8
4510
9910
60F0
1FC0
1240
1FC0
3FE0
2220
3FE0
3FE0
0208
01F8
ENDCHAR
STARTCHAR uni25DA1
ENCODING 23969
SWIDTH 960 0
DWIDTH 14 0
BBX 13 14 1 -2
BITMAP
2080
3EF8
5140
8A20
2080
FD40
FA20
AFF0
F808
AFF0
FD50
FFF0
2550
2430
ENDCHAR
STARTCHAR uni26AFF
ENCODING 27391
SWIDTH 960 0
DWIDTH 14 0
BBX 13 14 1 -2
BITMAP
0880
0880
FFF8
0880
0000
1FC0
0040
0880
0880
0500
0200
0500
18C0
E038
ENDCHAR
STARTCHAR uni26E40
ENCODING 28224
SWIDTH 960 0
DWIDTH 14 0
BBX 13 14 1 -2
BITMAP
0880
FFF8
0880
2000
29F0
C950
3550
2550
FBF0
1350
5950
5550
95F0
1110
ENDCHAR
STARTCHAR uni270F4
ENCODING 28916
SWIDTH 960 0
DWIDTH 14 0
BBX 13 14 1 -2
BITMAP
0880
FFF8
0880
43F8
5210
9500
61F8
5640
FAF0
1290
5AF0
5690
92F0
1290
ENDCHAR
STARTCHAR uni27684
ENCODING 30340
SWIDTH 960 0
DWIDTH 14 0
BBX 13 14 1 -2
BITMAP
40C0
4350
4E48
F248
2240
2FF8
5240
6350
D250
5620
5A20
4268
4698
4208
ENDCHAR
STARTCHAR uni28277
ENCODING 33399
SWIDTH 960 0
DWIDTH 14 0
BBX 13 14 1 -2
BITMAP
1080
2080
7BF8
4C10
7A20
4A90
7890
4D40
FA20
1FF0
2A28
CA20
0BE0
1A20
ENDCHAR
STARTCHAR uni283CD
ENCODING 33741
SWIDTH 960 0
DWIDTH 14 0
BBX 13 14 1 -2
BITMAP
1120
13E8
FDF0
1120
7ED0
5488
7DF8
5650
7C40
13F8
FEE0
1150
1648
1040
ENDCHAR
STARTCHAR uni2A190
ENCODING 41360
SWIDTH 960 0
DWIDTH 14 0
BBX 13 14 1 -2
BITMAP
2840
7E80
49F0
FD10
49F0
7D10
49F0
7FF8
1100
FFF8
38A8
5758
9288
1430
ENDCHAR
STARTCHAR uni20089
ENCODING 137
SWIDTH 960 0
DWIDTH 14 0
BBX 11 7 2 3
BITMAP
1000
1000
1000
3FE0
2000
4000
8000
ENDCHAR
STARTCHAR uni200A2
ENCODING 162
SWIDTH 960 0
DWIDTH 14 0
BBX 13 14 1 -2
BITMAP
0080
0300
1C20
10C0
1300
1E20
1320
1340
1380
2280
2240
2220
4218
8200
ENDCHAR
STARTCHAR uni200A4
ENCODING 164
SWIDTH 960 0
DWIDTH 14 0
BBX 8 14 4 -2
BITMAP
10
10
20
FE
82
82
FE
82
80
FF
81
81
FF
81
ENDCHAR
STARTCHAR uni201A2
ENCODING 418
SWIDTH 960 0
DWIDTH 14 0
BBX 13 8 1 2
BITMAP
0200
0200
0500
0500
0880
1040
2020
C018
ENDCHAR
STARTCHAR uni20213
ENCODING 531
SWIDTH 960 0
DWIDTH 14 0
BBX 13 14 1 -2
BITMAP
1000
1FF8
1100
2100
2FF0
6910
AD50
2D50
2D50
2D50
2FD0
2C50
2810
2830
ENDCHAR
STARTCHAR uni2032B
ENCODING 811
SWIDTH 960 0
DWIDTH 14 0
BBX 13 14 1 -2
BITMAP
1000
17F0
1490
27F0
2490
67F0
A2A0
2FF8
22A0
27F0
2080
2FF8
2080
2080
ENDCHAR
STARTCHAR uni20381
ENCODING 897
SWIDTH 960 0
DWIDTH 14 0
BBX 13 14 1 -2
BITMAP
1000
17F0
16B0
25B0
25D0
67F0
A080
27F0
2080
2FF8
2000
2690
2548
2948
ENDCHAR
STARTCHAR uni20371
ENCODING 881
SWIDTH 960 0
DWIDTH 14 0
BBX 13 14 1 -2
BITMAP
1240
17F8
1440
2FF0
2C40
77F0
A440
27F8
2080
2FF8
21C0
22A0
2C98
2080
ENDCHAR
STARTCHAR uni203F9
ENCODING 1017
SWIDTH 960 0
DWIDTH 14 0
BBX 13 14 1 -2
BITMAP
1000
1FF8
1140
27F0
2550
67F0
A000
27F0
25D0
2490
25D0
24B0
25D0
27F0
ENDCHAR
STARTCHAR uni2044A
ENCODING 1098
SWIDTH 960 0
DWIDTH 14 0
BBX 13 14 1 -2
BITMAP
2510
22A0
2FF8
2820
6FA0
6920
AFB8
2AD0
2B90
2BD0
32A0
3FB0
20D0
2088
ENDCHAR
STARTCHAR uni20509
ENCODING 1289
SWIDTH 960 0
DWIDTH 14 0
BBX 13 11 1 0
BITMAP
0200
1240
1220
2210
7FF0
0510
0880
FFF8
1040
2020
C018
ENDCHAR
STARTCHAR uni205D6
ENCODING 1494
SWIDTH 960 0
DWIDTH 14 0
BBX 13 14 1 -2
BITMAP
0240
0220
4410
2490
2880
0140
0240
2420
2FF0
5428
4420
8420
87E0
0420
ENDCHAR
STARTCHAR uni20628
ENCODING 1576
SWIDTH 960 0
DWIDTH 14 0
BBX 13 13 1 -2
BITMAP
3FE0
2020
2020
2020
2020
2020
2020
2020
2020
2028
4018
4018
8008
ENDCHAR
STARTCHAR uni2074F
ENCODING 1871
SWIDTH 960 0
DWIDTH 14 0
BBX 12 14 1 -2
BITMAP
1000
13F0
2890
2490
7C90
9290
7C90
5490
5490
7C90
2910
2510
4610
8460
ENDCHAR
STARTCHAR uni20807
ENCODING 2055
SWIDTH 960 0
DWIDTH 14 0
BBX 12 14 1 -2
BITMAP
2010
CE90
8A90
AA90
D690
0090
FE90
2890
EE90
8290
EE90
2810
3E10
C030
ENDCHAR
STARTCHAR uni2083A
ENCODING 2106
SWIDTH 960 0
DWIDTH 14 0
BBX 13 14 1 -2
BITMAP
0080
7C80
0080
03F0
0090
FE90
2890
2890
2910
2910
2A60
4808
4808
87F8
ENDCHAR
STARTCHAR uni208B9
ENCODING 2233
SWIDTH 960 0
DWIDTH 14 0
BBX 12 14 1 -2
BITMAP
0880
7F80
5480
7F80
55F0
5C90
7F90
7E90
6A90
7E90
6A90
7F10
9510
A260
ENDCHAR
STARTCHAR uni2097C
ENCODING 2428
SWIDTH 960 0
DWIDTH 14 0
BBX 11 14 2 -2
BITMAP
0100
0100
1100
1100
7D00
1100
1100
01E0
1F00
E100
0100
0100
0100
0100
ENDCHAR
STARTCHAR uni2099D
ENCODING 2461
SWIDTH 960 0
DWIDTH 14 0
BBX 13 14 1 -2
BITMAP
0200
0200
7FF0
0200
1FC0
1040
1FC0
1040
1FC0
0200
FFF8
0200
0200
0200
ENDCHAR
STARTCHAR uni20AD3
ENCODING 2771
SWIDTH 960 0
DWIDTH 14 0
BBX 13 11 1 0
BITMAP
0200
0200
0200
FFF8
0400
0400
0880
0840
11E0
7E10
0010
ENDCHAR
STARTCHAR uni20B1D
ENCODING 2845
SWIDTH 960 0
DWIDTH 14 0
BBX 10 13 3 -2
BITMAP
FF00
8100
8100
8600
8000
FF00
C100
A200
9400
8C00
9A00
E100
80C0
ENDCHAR
STARTCHAR uni20D45
ENCODING 3397
SWIDTH 960 0
DWIDTH 14 0
BBX 13 14 1 -2
BITMAP
0220
0220
FFF8
9220
9220
9140
9148
9250
9660
9A40
F240
9248
8248
0238
ENDCHAR
STARTCHAR uni20DE1
ENCODING 3553
SWIDTH 960 0
DWIDTH 14 0
BBX 13 13 1 -2
BITMAP
FFF8
0400
3FE0
3FE0
2020
3FE0
0500
1FC0
E038
1FC0
1040
1FC0
1040
ENDCHAR
STARTCHAR uni20E95
ENCODING 3733
SWIDTH 960 0
DWIDTH 14 0
BBX 12 14 1 -2
BITMAP
0100
06F0
F450
9550
9550
9690
98B0
97F0
9490
97F0
F490
9490
87F0
0410
ENDCHAR
STARTCHAR uni20E6D
ENCODING 3693
SWIDTH 960 0
DWIDTH 14 0
BBX 13 13 1 -2
BITMAP
0FF8
F010
9390
9290
93B0
9000
9FF8
9010
9390
F290
9390
8290
0030
ENDCHAR
STARTCHAR uni20E64
ENCODING 3684
SWIDTH 960 0
DWIDTH 14 0
BBX 13 14 1 -2
BITMAP
0080
0080
F7F0
9080
9FF8
9080
97F0
9080
9FF8
9080
F550
9508
8928
00E0
ENDCHAR
STARTCHAR uni20F5F
ENCODING 3935
SWIDTH 960 0
DWIDTH 14 0
BBX 13 14 1 -2
BITMAP
0720
0120
F5C8
9250
92A0
9490
9FF8
9490
9490
97F0
F4A0
9090
80F8
0708
ENDCHAR
STARTCHAR uni21201
ENCODING 4609
SWIDTH 960 0
DWIDTH 14 0
BBX 11 13 2 -2
BITMAP
FFE0
8420
9F20
9F20
9120
9F20
BFA0
9F20
8420
FFE0
8020
FFE0
8020
ENDCHAR
STARTCHAR uni21255
ENCODING 4693
SWIDTH 960 0
DWIDTH 14 0
BBX 13 14 1 -2
BITMAP
0100
2100
2100
27E0
F920
2520
2320
2120
29A0
32A0
C220
0228
0428
0818
ENDCHAR
STARTCHAR uni2127B
ENCODING 4731
SWIDTH 960 0
DWIDTH 14 0
BBX 13 14 1 -2
BITMAP
0080
2080
27E0
20A0
F8A8
2128
2698
2080
2880
37F8
C080
0080
0080
0080
ENDCHAR
STARTCHAR uni21274
ENCODING 4724
SWIDTH 960 0
DWIDTH 14 0
BBX 13 14 1 -2
BITMAP
0018
23E0
2200
23F0
FA10
2210
2210
23F0
2A10
3200
C200
0400
0400
0800
ENDCHAR
STARTCHAR uni212E4
ENCODING 4836
SWIDTH 960 0
DWIDTH 14 0
BBX 13 13 1 -2
BITMAP
23F0
2210
2210
FBF0
2250
2240
2420
2590
3848
C000
0700
00C0
0020
ENDCHAR
STARTCHAR uni212D7
ENCODING 4823
SWIDTH 960 0
DWIDTH 14 0
BBX 13 14 1 -2
BITMAP
0080
2080
2140
2120
FA10
25E8
2000
2000
27F8
3940
C120
0260
0790
0010
ENDCHAR
STARTCHAR uni212FD
ENCODING 4861
SWIDTH 960 0
DWIDTH 14 0
BBX 13 14 1 -2
BITMAP
0080
2080
27F0
2080
F880
27F8
2140
2550
2550
3548
C948
0240
0240
04C0
ENDCHAR
STARTCHAR uni21336
ENCODING 4918
SWIDTH 960 0
DWIDTH 14 0
BBX 13 13 1 -1
BITMAP
0220
2120
2140
2FF8
F940
2140
2950
2550
2550
3560
C140
0140
0FF8
ENDCHAR
STARTCHAR uni21344
ENCODING 4932
SWIDTH 960 0
DWIDTH 14 0
BBX 13 13 1 -2
BITMAP
23F0
2210
2210
FBF0
2250
2240
23F8
2A40
33F0
C510
0510
09F0
1110
ENDCHAR
STARTCHAR uni213C4
ENCODING 5060
SWIDTH 960 0
DWIDTH 14 0
BBX 13 12 1 -1
BITMAP
79E0
0120
FDE0
1120
55E0
5520
5520
97F8
0200
3FF0
0200
FFF8
ENDCHAR
STARTCHAR uni2146D
ENCODING 5229
SWIDTH 960 0
DWIDTH 14 0
BBX 13 14 1 -2
BITMAP
0080
2140
2220
2FF8
FFF0
2490
26B0
26B0
27F0
3000
E3E0
03E0
0220
03E0
ENDCHAR
STARTCHAR uni215D7
ENCODING 5591
SWIDTH 960 0
DWIDTH 14 0
BBX 13 10 1 1
BITMAP
0200
0200
7FF0
0200
3FE0
0500
FFF8
0880
3060
C018
ENDCHAR
STARTCHAR uni26C29
ENCODING 27689
SWIDTH 960 0
DWIDTH 14 0
BBX 11 14 2 -2
BITMAP
1100
1100
FFE0
1100
7FC0
4440
7FC0
0400
7FC0
0400
FFE0
0A00
3180
C060
ENDCHAR
STARTCHAR uni21647
ENCODING 5703
SWIDTH 960 0
DWIDTH 14 0
BBX 13 14 1 -2
BITMAP
0480
7880
1080
FFF0
5490
5490
FE90
57F8
54C0
FF40
1120
1120
1E10
E408
ENDCHAR
STARTCHAR uni21706
ENCODING 5894
SWIDTH 960 0
DWIDTH 14 0
BBX 13 14 1 -2
BITMAP
1000
13F0
1110
1110
FE60
2400
27F0
2690
7E90
4BF0
0E10
1608
2208
41F8
ENDCHAR
STARTCHAR uni21742
ENCODING 5954
SWIDTH 960 0
DWIDTH 14 0
BBX 13 14 1 -2
BITMAP
2520
2520
2520
2520
FFF8
4920
4920
4F20
F520
9520
1D20
2D20
45F8
8900
ENDCHAR
STARTCHAR uni219C3
ENCODING 6595
SWIDTH 960 0
DWIDTH 14 0
BBX 13 14 1 -2
BITMAP
0200
0200
7FF8
4010
8000
3FE0
0000
0000
FFF8
0200
0200
0200
0200
0600
ENDCHAR
STARTCHAR uni21C56
ENCODING 7254
SWIDTH 960 0
DWIDTH 14 0
BBX 13 13 1 -2
BITMAP
3FF0
2010
3FF0
2510
2500
2FE0
3100
3FF8
2380
2540
4920
5118
8100
ENDCHAR
STARTCHAR uni21D2D
ENCODING 7469
SWIDTH 960 0
DWIDTH 14 0
BBX 12 13 1 -1
BITMAP
2000
23E0
2040
A840
A880
A880
A900
A900
A900
AA10
FA10
8A10
81F0
ENDCHAR
STARTCHAR uni21D45
ENCODING 7493
SWIDTH 960 0
DWIDTH 14 0
BBX 12 14 1 -2
BITMAP
0200
4210
4210
7FF0
4010
2020
2220
2220
2220
2220
2220
4220
4020
8020
ENDCHAR
STARTCHAR uni21D78
ENCODING 7544
SWIDTH 960 0
DWIDTH 14 0
BBX 13 14 1 -2
BITMAP
2000
23F0
2210
AA10
AA10
ABF0
AA50
AA40
AA40
AA40
FA20
8420
8410
0808
ENDCHAR
STARTCHAR uni21D62
ENCODING 7522
SWIDTH 960 0
DWIDTH 14 0
BBX 13 14 1 -2
BITMAP
0200
4210
4210
7FF0
4010
0400
FFF8
0400
0FC0
0840
1480
2300
4CC0
B038
ENDCHAR
STARTCHAR uni21DA1
ENCODING 7585
SWIDTH 960 0
DWIDTH 14 0
BBX 13 14 1 -2
BITMAP
2080
2490
2290
AAA0
A880
ABF0
A880
A880
AFF8
A880
F880
8880
8080
0080
ENDCHAR
STARTCHAR uni21D9C
ENCODING 7580
SWIDTH 960 0
DWIDTH 14 0
BBX 13 14 1 -2
BITMAP
2010
2060
2380
AA00
AA00
ABF8
AA40
AA40
AAC0
AA60
FC50
8440
8840
0040
ENDCHAR
STARTCHAR uni21D92
ENCODING 7570
SWIDTH 960 0
DWIDTH 14 0
BBX 13 14 1 -2
BITMAP
2140
2140
27F0
A950
A950
AFF0
AD50
AD40
AFF8
AD48
F948
8270
8240
0440
ENDCHAR
STARTCHAR uni21DB7
ENCODING 7607
SWIDTH 960 0
DWIDTH 14 0
BBX 13 14 1 -2
BITMAP
0200
2220
2220
3FE0
0000
1020
1DF8
2520
6520
9920
0FF8
1020
2020
C020
ENDCHAR
STARTCHAR uni21DE0
ENCODING 7648
SWIDTH 960 0
DWIDTH 14 0
BBX 13 14 1 -2
BITMAP
0200
2220
2220
3FE0
0000
23C0
FA40
2248
2438
3FC0
E240
2180
2260
6C18
ENDCHAR
STARTCHAR uni21E33
ENCODING 7731
SWIDTH 960 0
DWIDTH 14 0
BBX 13 14 1 -2
BITMAP
2080
2080
27F0
A880
AA20
AFF8
AA20
AA20
AFF8
A940
F940
8248
8448
1838
ENDCHAR
STARTCHAR uni21F1E
ENCODING 7966
SWIDTH 960 0
DWIDTH 14 0
BBX 13 14 1 -2
BITMAP
0200
2220
2220
3FE0
10F0
7E90
14A0
FFE0
1090
3E88
E288
3EC8
22B0
3E80
ENDCHAR
STARTCHAR uni21F76
ENCODING 8054
SWIDTH 960 0
DWIDTH 14 0
BBX 13 14 1 -2
BITMAP
2080
21E0
2120
A9E0
A9E0
A920
ABF0
AA90
ABF0
AA90
FBF0
8FF8
8220
0420
ENDCHAR
STARTCHAR uni21FFA
ENCODING 8186
SWIDTH 960 0
DWIDTH 14 0
BBX 11 14 2 -2
BITMAP
2220
4440
8880
4440
2620
0800
FFE0
9120
8920
8620
8E20
B120
FFE0
8020
ENDCHAR
STARTCHAR uni2217B
ENCODING 8571
SWIDTH 960 0
DWIDTH 14 0
BBX 13 14 1 -2
BITMAP
2550
2660
2FF8
F770
B660
B770
B660
B778
B000
BFF0
2460
23C0
2260
2C38
ENDCHAR
STARTCHAR uni2231E
ENCODING 8990
SWIDTH 960 0
DWIDTH 14 0
BBX 13 13 1 -2
BITMAP
F7F0
1410
25D0
2550
4550
F5D0
1550
9510
6550
24D0
5430
4C00
83F8
ENDCHAR
STARTCHAR uni223AD
ENCODING 9133
SWIDTH 960 0
DWIDTH 14 0
BBX 12 14 1 -2
BITMAP
0080
F080
1080
17F0
F490
9490
8490
F490
9490
1490
14E0
1080
1080
6080
ENDCHAR
STARTCHAR uni226F3
ENCODING 9971
SWIDTH 960 0
DWIDTH 14 0
BBX 13 14 1 -2
BITMAP
0200
0200
FFF8
0200
3FE0
2520
3FE0
0000
7FF0
0920
4910
4848
8848
07C0
ENDCHAR
STARTCHAR uni2285B
ENCODING 10331
SWIDTH 960 0
DWIDTH 14 0
BBX 13 14 1 -2
BITMAP
4240
2FF0
2240
9FF8
4FF0
5910
2D50
4D50
8FD0
8830
0200
4910
4848
87C8
ENDCHAR
STARTCHAR uni228AB
ENCODING 10411
SWIDTH 960 0
DWIDTH 14 0
BBX 13 14 1 -2
BITMAP
2080
27F0
F880
23E0
3140
2FF8
6BE0
67F0
AA28
23E0
2220
4910
4848
87C8
ENDCHAR
STARTCHAR uni2298F
ENCODING 10639
SWIDTH 960 0
DWIDTH 14 0
BBX 13 14 1 -2
BITMAP
1080
10A0
7E90
1090
FFF8
0080
0090
0090
0060
0040
00C8
0128
0E18
0008
ENDCHAR
STARTCHAR uni22AB8
ENCODING 10936
SWIDTH 960 0
DWIDTH 14 0
BBX 13 14 1 -2
BITMAP
1000
1FF0
3310
6310
9560
0908
31F8
C1C0
1E00
3FE0
0200
FFF8
0200
0600
ENDCHAR
STARTCHAR uni22B4F
ENCODING 11087
SWIDTH 960 0
DWIDTH 14 0
BBX 13 14 1 -2
BITMAP
2080
2080
27F0
F880
23F0
2100
27F8
3A20
E7F8
2420
2620
2920
3120
6060
ENDCHAR
STARTCHAR uni22B50
ENCODING 11088
SWIDTH 960 0
DWIDTH 14 0
BBX 13 14 1 -2
BITMAP
2510
2290
22A0
FFF8
2410
2880
2080
37F0
E090
2110
2110
2210
2410
6860
ENDCHAR
STARTCHAR uni22B46
ENCODING 11078
SWIDTH 960 0
DWIDTH 14 0
BBX 13 14 1 -2
BITMAP
2030
27C0
2080
FFF8
2180
22C0
24A0
3BD8
E140
2170
2250
2210
2410
6860
ENDCHAR
STARTCHAR uni22C1D
ENCODING 11293
SWIDTH 960 0
DWIDTH 14 0
BBX 13 14 1 -2
BITMAP
2220
2220
27F8
FA20
2120
2110
27F8
3D00
E4A0
24A0
2440
2448
28B8
7308
ENDCHAR
STARTCHAR uni22BA6
ENCODING 11174
SWIDTH 960 0
DWIDTH 14 0
BBX 13 14 1 -2
BITMAP
2080
2080
2140
FA20
23F0
2488
23F0
3A90
E290
23F0
20C0
2120
2610
6808
ENDCHAR
STARTCHAR uni22C24
ENCODING 11300
SWIDTH 960 0
DWIDTH 14 0
BBX 13 14 1 -2
BITMAP
2080
2080
27F0
FA20
2120
2140
27F8
3810
E3D0
2250
23D0
2210
2010
6030
ENDCHAR
STARTCHAR uni22DE1
ENCODING 11745
SWIDTH 960 0
DWIDTH 14 0
BBX 13 14 1 -2
BITMAP
2000
2FF8
2220
FF78
2B68
2F78
2948
2B58
3880
E7F8
21C0
22A0
2498
6080
ENDCHAR
STARTCHAR uni231C3
ENCODING 12739
SWIDTH 960 0
DWIDTH 14 0
BBX 13 14 1 -2
BITMAP
0200
2220
1240
7FF0
0500
FFF8
0880
37E0
D458
17C0
1440
1440
17C0
1440
ENDCHAR
STARTCHAR uni231F5
ENCODING 12789
SWIDTH 960 0
DWIDTH 14 0
BBX 11 13 2 -2
BITMAP
7FC0
4040
7FC0
4040
7FC0
0000
F3E0
9220
F3E0
9220
F3E0
8420
0860
ENDCHAR
STARTCHAR uni231B6
ENCODING 12726
SWIDTH 960 0
DWIDTH 14 0
BBX 13 14 1 -2
BITMAP
1000
11F0
3D10
4910
FD10
55F0
5510
7D10
5910
19F0
2910
2808
4808
87F8
ENDCHAR
STARTCHAR uni23372
ENCODING 13170
SWIDTH 960 0
DWIDTH 14 0
BBX 13 13 1 -2
BITMAP
7FF0
4880
4BE0
4920
7920
4FF8
4880
7FF8
4920
4BA0
4840
49A0
9A10
ENDCHAR
STARTCHAR uni233D3
ENCODING 13267
SWIDTH 960 0
DWIDTH 14 0
BBX 13 14 1 -2
BITMAP
2000
23F0
2080
F880
27F8
3100
6900
6A00
63F0
A210
A010
2020
2020
20C0
ENDCHAR
STARTCHAR uni233D2
ENCODING 13266
SWIDTH 960 0
DWIDTH 14 0
BBX 13 14 1 -2
BITMAP
2100
2100
2100
FFE0
2120
3120
6D20
6B20
61A0
A2A0
A220
2228
2428
2818
ENDCHAR
STARTCHAR uni233D0
ENCODING 13264
SWIDTH 960 0
DWIDTH 14 0
BBX 12 14 1 -2
BITMAP
2080
2080
2080
F8F0
2110
3110
6A90
6CA0
6060
A020
A040
2080
2300
2C00
ENDCHAR
STARTCHAR uni233E4
ENCODING 13284
SWIDTH 960 0
DWIDTH 14 0
BBX 13 14 1 -2
BITMAP
2140
2120
2210
FC08
2228
3220
6A20
6940
6140
A080
A080
2140
2220
2C18
ENDCHAR
STARTCHAR uni233D5
ENCODING 13269
SWIDTH 960 0
DWIDTH 14 0
BBX 13 14 1 -2
BITMAP
2080
2080
2080
FFF8
2080
32A0
6AA0
6AA0
62A0
A2A8
A4A8
2498
2880
2080
ENDCHAR
STARTCHAR uni233DA
ENCODING 13274
SWIDTH 960 0
DWIDTH 14 0
BBX 13 14 1 -2
BITMAP
2010
2060
23C0
FE40
2240
33F8
6A40
6A40
6220
A220
A228
2258
2398
2E08
ENDCHAR
STARTCHAR uni233DF
ENCODING 13279
SWIDTH 960 0
DWIDTH 14 0
BBX 13 14 1 -2
BITMAP
1040
1040
1040
FFF8
1040
5960
5960
5960
5960
5568
5668
9258
1440
1040
ENDCHAR
STARTCHAR uni2344A
ENCODING 13386
SWIDTH 960 0
DWIDTH 14 0
BBX 13 14 1 -2
BITMAP
2100
2100
2100
FFF8
2240
3240
6C40
6DF0
6440
A440
A440
2440
27F8
2400
ENDCHAR
STARTCHAR uni23451
ENCODING 13393
SWIDTH 960 0
DWIDTH 14 0
BBX 13 14 1 -2
BITMAP
2040
2040
23F8
FA10
25F0
3020
6840
6840
67F8
A040
A040
2040
2040
20C0
ENDCHAR
STARTCHAR uni2344B
ENCODING 13387
SWIDTH 960 0
DWIDTH 14 0
BBX 13 14 1 -2
BITMAP
2040
2040
23F8
FA10
2420
3020
6FF8
6820
6220
A120
A120
2020
2020
2060
ENDCHAR
STARTCHAR uni23465
ENCODING 13413
SWIDTH 960 0
DWIDTH 14 0
BBX 13 14 1 -2
BITMAP
2080
2090
23F0
F8A0
20A0
37F8
6880
6900
63F0
AC40
A040
2040
2040
20C0
ENDCHAR
STARTCHAR uni234E4
ENCODING 13540
SWIDTH 960 0
DWIDTH 14 0
BBX 13 14 1 -2
BITMAP
2080
2080
27F8
F880
21A0
37F8
6920
6920
6FF8
A140
A140
2248
2448
2838
ENDCHAR
STARTCHAR uni2355A
ENCODING 13658
SWIDTH 960 0
DWIDTH 14 0
BBX 13 14 1 -2
BITMAP
2120
2120
2FF8
F920
2090
3088
6FF8
6C80
6490
A450
A460
28A8
2918
3608
ENDCHAR
STARTCHAR uni23594
ENCODING 13716
SWIDTH 960 0
DWIDTH 14 0
BBX 13 14 1 -2
BITMAP
2000
27F8
25F0
FD10
25F0
3510
6DF0
6C00
65F0
A420
A7F8
2840
2840
30C0
ENDCHAR
STARTCHAR uni23639
ENCODING 13881
SWIDTH 960 0
DWIDTH 14 0
BBX 13 14 1 -2
BITMAP
2080
2080
27F8
FC10
27F8
3080
6BF0
6A90
63F0
A290
A3F0
2120
2210
2C08
ENDCHAR
STARTCHAR uni23647
ENCODING 13895
SWIDTH 960 0
DWIDTH 14 0
BBX 13 14 1 -2
BITMAP
2220
2240
27F8
FA40
23F0
2BF0
3240
C3F8
0200
FFF8
0700
1AC0
E238
0200
ENDCHAR
STARTCHAR uni23638
ENCODING 13880
SWIDTH 960 0
DWIDTH 14 0
BBX 13 14 1 -2
BITMAP
2000
23F0
2290
FBF0
2290
33F0
6880
6BF0
6080
A7F8
A000
2690
2548
2948
ENDCHAR
STARTCHAR uni2363A
ENCODING 13882
SWIDTH 960 0
DWIDTH 14 0
BBX 13 14 1 -2
BITMAP
2100
2100
23F8
FB20
25E0
3120
69E0
6920
67F8
A408
A5E8
2528
25E8
2418
ENDCHAR
STARTCHAR uni2371C
ENCODING 14108
SWIDTH 960 0
DWIDTH 14 0
BBX 13 14 1 -2
BITMAP
2120
27F8
2120
FBF0
2290
33F0
6A90
6BF0
6080
A7F8
A4A8
24E8
2728
2418
ENDCHAR
STARTCHAR uni2370C
ENCODING 14092
SWIDTH 960 0
DWIDTH 14 0
BBX 13 14 1 -2
BITMAP
2180
2670
2410
FF70
2410
37F0
6800
6ED0
65B0
A490
A6D0
25B8
26D8
2D88
ENDCHAR
STARTCHAR uni23764
ENCODING 14180
SWIDTH 960 0
DWIDTH 14 0
BBX 13 14 1 -2
BITMAP
2080
2490
2490
FFF0
2890
2520
75F8
7320
6DF0
A5F0
A520
25F8
2A00
31F8
ENDCHAR
STARTCHAR uni237FF
ENCODING 14335
SWIDTH 960 0
DWIDTH 14 0
BBX 13 14 1 -2
BITMAP
2220
2FF8
22A0
FBE8
2630
33E0
6E30
6BE8
6080
AFF8
A1C0
22A0
2C98
2080
ENDCHAR
STARTCHAR uni237E7
ENCODING 14311
SWIDTH 960 0
DWIDTH 14 0
BBX 13 14 1 -2
BITMAP
2040
29F0
2550
F5F0
23F8
21F0
7D10
75F0
65F0
A510
A5F0
2CA0
2B10
31F8
ENDCHAR
STARTCHAR uni23824
ENCODING 14372
SWIDTH 960 0
DWIDTH 14 0
BBX 13 14 1 -2
BITMAP
2400
24F0
2F90
FA90
2FF0
2490
6FF0
7A90
7FF0
AA60
AF60
2AA8
2FA8
2918
ENDCHAR
STARTCHAR uni2383D
ENCODING 14397
SWIDTH 960 0
DWIDTH 14 0
BBX 13 14 1 -2
BITMAP
2000
2FF8
27F0
FD50
25D0
2500
6FF0
7750
7FF0
AAD0
AFF0
3FD0
2290
2330
ENDCHAR
STARTCHAR uni23A98
ENCODING 15000
SWIDTH 960 0
DWIDTH 14 0
BBX 13 14 1 -2
BITMAP
2000
41E0
F920
8928
FA28
8C18
F800
8FF0
0110
98A0
E0A0
8040
89A0
7A18
ENDCHAR
STARTCHAR uni23C7F
ENCODING 15487
SWIDTH 960 0
DWIDTH 14 0
BBX 13 14 1 -2
BITMAP
2380
1080
1080
8080
4080
4080
0080
11C0
1140
2140
2220
4220
4410
4808
ENDCHAR
STARTCHAR uni23D00
ENCODING 15616
SWIDTH 960 0
DWIDTH 14 0
BBX 13 14 1 -2
BITMAP
2000
17F0
1090
8090
4110
4660
0000
1F78
1528
2528
2528
4948
4948
5398
ENDCHAR
STARTCHAR uni23D40
ENCODING 15680
SWIDTH 960 0
DWIDTH 14 0
BBX 13 14 1 -2
BITMAP
2000
13E0
1220
83E0
4220
43E0
0220
1000
17F0
2080
2080
4080
4FF8
4000
ENDCHAR
STARTCHAR uni23DFA
ENCODING 15866
SWIDTH 960 0
DWIDTH 14 0
BBX 13 14 1 -2
BITMAP
2000
1F78
1528
8B58
4528
4948
0000
17F0
1210
2220
21C0
40C0
4320
4C18
ENDCHAR
STARTCHAR uni23DF9
ENCODING 15865
SWIDTH 960 0
DWIDTH 14 0
BBX 13 14 1 -2
BITMAP
2070
1780
1080
8FF8
4140
4220
0510
2908
21A0
2FC0
4540
4520
8918
8300
ENDCHAR
STARTCHAR uni23DD3
ENCODING 15827
SWIDTH 960 0
DWIDTH 14 0
BBX 12 14 1 -2
BITMAP
2100
1200
1E70
8250
4250
4FD0
0250
1750
16D0
2650
2A50
4A70
4250
4200
ENDCHAR
STARTCHAR uni23F7E
ENCODING 16254
SWIDTH 960 0
DWIDTH 14 0
BBX 13 14 1 -2
BITMAP
2080
17F0
1240
8140
4FF8
4000
03E0
1220
13E0
23E0
2220
43E0
4248
4C38
ENDCHAR
STARTCHAR uni24096
ENCODING 16534
SWIDTH 960 0
DWIDTH 14 0
BBX 13 14 1 -2
BITMAP
4010
2F10
2920
8F20
4948
4F10
0410
3FA0
2F48
4908
4F10
8B10
B2A0
8640
ENDCHAR
STARTCHAR uni24103
ENCODING 16643
SWIDTH 960 0
DWIDTH 14 0
BBX 12 14 1 -2
BITMAP
4000
3EF0
3290
9EF0
5290
5EF0
1450
3390
3BF0
5490
53D0
9550
99D0
9030
ENDCHAR
STARTCHAR uni241C6
ENCODING 16838
SWIDTH 960 0
DWIDTH 14 0
BBX 12 14 1 -2
BITMAP
1000
13F0
1210
1610
57D0
5A50
5250
9250
13D0
1A50
2610
2610
43F0
8210
ENDCHAR
STARTCHAR uni241FE
ENCODING 16894
SWIDTH 960 0
DWIDTH 14 0
BBX 13 11 1 0
BITMAP
1040
1450
5550
5960
9260
2890
4510
0000
7FF8
4010
8000
ENDCHAR
STARTCHAR uni243BC
ENCODING 17340
SWIDTH 960 0
DWIDTH 14 0
BBX 13 14 1 -2
BITMAP
1060
FE50
7FF8
4440
7CC0
10C0
5548
B238
0200
1220
1220
2540
18C0
E038
ENDCHAR
STARTCHAR uni24629
ENCODING 17961
SWIDTH 960 0
DWIDTH 14 0
BBX 13 13 1 -2
BITMAP
7FF0
2310
2520
18C0
2520
C218
2200
2200
3FF0
4200
FFF8
0200
0200
ENDCHAR
STARTCHAR uni246A5
ENCODING 18085
SWIDTH 960 0
DWIDTH 14 0
BBX 13 14 1 -2
BITMAP
2080
2080
2940
4520
FFF0
5408
53F0
7C40
9080
13E0
FE20
1220
13E0
1220
ENDCHAR
STARTCHAR uni24896
ENCODING 18582
SWIDTH 960 0
DWIDTH 14 0
BBX 13 14 1 -2
BITMAP
1000
93E0
6220
23E0
6000
9778
1548
3778
5080
9FF8
11C0
12A0
6C98
2080
ENDCHAR
STARTCHAR uni24A4D
ENCODING 19021
SWIDTH 960 0
DWIDTH 14 0
BBX 13 14 1 -2
BITMAP
0040
FE40
2440
7FF0
2440
3E40
D040
2BF8
3C40
42C0
FCA0
0920
1110
2208
ENDCHAR
STARTCHAR uni24B56
ENCODING 19286
SWIDTH 960 0
DWIDTH 14 0
BBX 13 13 1 -2
BITMAP
FFF0
2100
21E0
3DE0
2500
37F8
2D00
2D40
2520
27D0
2C18
3408
C3F8
ENDCHAR
STARTCHAR uni24B6F
ENCODING 19311
SWIDTH 960 0
DWIDTH 14 0
BBX 13 14 1 -2
BITMAP
0040
FC80
21F0
21F0
3D10
25F0
3440
2FC8
2CF0
2560
2650
2CC8
3408
C3F8
ENDCHAR
STARTCHAR uni24C16
ENCODING 19478
SWIDTH 960 0
DWIDTH 14 0
BBX 13 13 1 -2
BITMAP
07F0
F810
A810
AA10
AA20
F920
A940
A8C0
A880
F940
8A20
0410
0808
ENDCHAR
STARTCHAR uni24D14
ENCODING 19732
SWIDTH 960 0
DWIDTH 14 0
BBX 9 13 3 -2
BITMAP
FF80
0200
0C00
4800
4800
4F80
4800
4800
4800
4980
4E00
7000
C000
ENDCHAR
STARTCHAR uni24E0E
ENCODING 19982
SWIDTH 960 0
DWIDTH 14 0
BBX 13 14 1 -2
BITMAP
0100
1FF8
1000
97E0
5420
57E0
1420
37E0
5200
97F0
3910
2A90
4C90
8FB0
ENDCHAR
STARTCHAR uni24E37
ENCODING 20023
SWIDTH 960 0
DWIDTH 14 0
BBX 13 14 1 -2
BITMAP
0100
1FF8
1000
9FE0
5FF8
5220
1FE0
37F0
5A10
93F0
2FF0
2910
4910
8960
ENDCHAR
STARTCHAR uni24E6A
ENCODING 20074
SWIDTH 960 0
DWIDTH 14 0
BBX 13 14 1 -2
BITMAP
0100
1FF8
1000
97F8
5400
55E0
1520
35E0
57F0
96D0
27F0
2400
47F8
8400
ENDCHAR
STARTCHAR uni24E8B
ENCODING 20107
SWIDTH 960 0
DWIDTH 14 0
BBX 13 14 1 -2
BITMAP
0100
1FF8
1000
9440
5F60
5490
1F28
3D40
5F90
9D20
2FC8
2410
5F20
84C0
ENDCHAR
STARTCHAR uni2504A
ENCODING 20554
SWIDTH 960 0
DWIDTH 14 0
BBX 13 13 1 -1
BITMAP
0400
0400
FFF8
0400
0FC0
0840
1480
2300
DCF0
3FE0
2520
2520
FFF8
ENDCHAR
STARTCHAR uni25055
ENCODING 20565
SWIDTH 960 0
DWIDTH 14 0
BBX 13 12 1 -1
BITMAP
3FE0
2220
2220
2720
28A0
30A0
3FE0
0000
3FE0
2520
2520
FFF8
ENDCHAR
STARTCHAR uni25122
ENCODING 20770
SWIDTH 960 0
DWIDTH 14 0
BBX 13 14 1 -2
BITMAP
0080
0080
F080
9FF8
91C0
F1C0
92A0
92A0
F490
9490
9888
F080
9080
0080
ENDCHAR
STARTCHAR uni251A9
ENCODING 20905
SWIDTH 960 0
DWIDTH 14 0
BBX 13 13 1 -2
BITMAP
05F0
F510
9510
95F0
F510
9510
95F0
F550
9240
9240
F248
9448
0838
ENDCHAR
STARTCHAR uni251E5
ENCODING 20965
SWIDTH 960 0
DWIDTH 14 0
BBX 13 14 1 -2
BITMAP
0080
0080
F140
9220
97F0
F888
97F0
9490
F7F0
9490
9140
F120
9210
0C08
ENDCHAR
STARTCHAR uni251CD
ENCODING 20941
SWIDTH 960 0
DWIDTH 14 0
BBX 13 14 1 -2
BITMAP
0080
0080
F0F8
9080
97F0
F410
97F0
9410
F7F0
9080
9FF8
F080
9080
0080
ENDCHAR
STARTCHAR uni2521E
ENCODING 21022
SWIDTH 960 0
DWIDTH 14 0
BBX 13 14 1 -2
BITMAP
0240
0240
FFF0
9240
9FF8
F100
97F0
9510
F750
9750
97D0
F650
9410
0430
ENDCHAR
STARTCHAR uni2524C
ENCODING 21068
SWIDTH 960 0
DWIDTH 14 0
BBX 13 14 1 -2
BITMAP
0220
0220
FFF8
9220
9080
F140
9220
9DD8
F000
93E0
9220
F220
93E0
0220
ENDCHAR
STARTCHAR uni2542E
ENCODING 21550
SWIDTH 960 0
DWIDTH 14 0
BBX 13 13 1 -2
BITMAP
FDF0
2110
2110
2110
79F0
4950
C940
4940
4940
7A20
4A20
4410
0808
ENDCHAR
STARTCHAR uni254D9
ENCODING 21721
SWIDTH 960 0
DWIDTH 14 0
BBX 13 14 1 -2
BITMAP
1040
1040
FFF8
38E0
34D0
5348
9248
0000
FFF0
0800
3FE0
D020
1FE0
1020
ENDCHAR
STARTCHAR uni255A7
ENCODING 21927
SWIDTH 960 0
DWIDTH 14 0
BBX 13 14 1 -2
BITMAP
0020
F440
24F0
2490
25F0
7690
54F0
D4F8
5480
55F8
7368
51F8
4188
0230
ENDCHAR
STARTCHAR uni257A9
ENCODING 22441
SWIDTH 960 0
DWIDTH 14 0
BBX 13 14 1 -2
BITMAP
0610
0910
7120
13F0
1120
FD20
1120
3BF8
3520
5520
9220
1220
1420
1820
ENDCHAR
STARTCHAR uni257B4
ENCODING 22452
SWIDTH 960 0
DWIDTH 14 0
BBX 13 14 1 -2
BITMAP
0440
0940
7140
13F0
1240
FC40
17F8
3800
35F0
5510
9110
1110
11F0
1110
ENDCHAR
STARTCHAR uni259D4
ENCODING 22996
SWIDTH 960 0
DWIDTH 14 0
BBX 13 14 1 -2
BITMAP
0200
7FF8
4510
9910
60F0
3FF0
3FC0
7FE0
A4A0
1520
7FE8
0E38
1518
24C8
ENDCHAR
STARTCHAR uni25AE4
ENCODING 23268
SWIDTH 960 0
DWIDTH 14 0
BBX 13 14 1 -2
BITMAP
2080
2080
3EF8
5140
8A20
7FE0
0020
1FE0
1000
1FE0
1020
0020
0020
01C0
ENDCHAR
STARTCHAR uni25AE3
ENCODING 23267
SWIDTH 960 0
DWIDTH 14 0
BBX 13 14 1 -2
BITMAP
2080
2080
3EF8
5140
8A20
0FE0
0800
0F80
0080
FFF8
0080
0080
0080
0700
ENDCHAR
STARTCHAR uni25AF1
ENCODING 23281
SWIDTH 960 0
DWIDTH 14 0
BBX 13 14 1 -2
BITMAP
2080
2080
3EF8
5140
8E20
04E0
FF00
4440
4440
4440
7FC0
4448
0408
03F8
ENDCHAR
STARTCHAR uni25BB2
ENCODING 23474
SWIDTH 960 0
DWIDTH 14 0
BBX 13 14 1 -2
BITMAP
2080
2080
3EF8
5140
8A20
1FF0
1FC0
1FC0
1000
FFF8
1220
11C0
1E60
6018
ENDCHAR
STARTCHAR uni25C4B
ENCODING 23627
SWIDTH 960 0
DWIDTH 14 0
BBX 13 14 1 -2
BITMAP
2080
3EF8
5140
8A20
27F0
9110
4510
1210
2560
4200
FFF8
0700
1AC0
E238
ENDCHAR
STARTCHAR uni25C64
ENCODING 23652
SWIDTH 960 0
DWIDTH 14 0
BBX 13 14 1 -2
BITMAP
2080
3EF8
5140
8A20
13F8
1E20
29C0
6E78
A880
2B20
28C0
2B10
2860
2780
ENDCHAR
STARTCHAR uni25E2E
ENCODING 24110
SWIDTH 960 0
DWIDTH 14 0
BBX 13 14 1 -2
BITMAP
0200
0200
3FE0
0200
0200
FFF8
2240
1240
1280
FFF8
0700
1AC0
E238
0200
ENDCHAR
STARTCHAR uni25E56
ENCODING 24150
SWIDTH 960 0
DWIDTH 14 0
BBX 13 14 1 -2
BITMAP
1040
9440
57F8
5A50
1260
FE40
13F0
3B10
36A0
56A0
9240
14A0
1510
1A08
ENDCHAR
STARTCHAR uni25E65
ENCODING 24165
SWIDTH 960 0
DWIDTH 14 0
BBX 12 14 1 -2
BITMAP
1080
9690
56B0
5AA0
1080
FFF0
1010
3810
3410
57F0
9010
1010
13F0
1000
ENDCHAR
STARTCHAR uni25E62
ENCODING 24162
SWIDTH 960 0
DWIDTH 14 0
BBX 13 14 1 -2
BITMAP
0200
1240
0A80
FFF8
0A80
3260
C218
FFF8
1040
1FC0
1FC0
1078
FFC0
0040
ENDCHAR
STARTCHAR uni25ED8
ENCODING 24280
SWIDTH 960 0
DWIDTH 14 0
BBX 13 14 1 -2
BITMAP
10A8
94A8
58A8
FF50
3150
5FE0
92A0
5550
FD50
B550
74A8
7EA8
44A8
84A8
ENDCHAR
STARTCHAR uni25EC2
ENCODING 24258
SWIDTH 960 0
DWIDTH 14 0
BBX 13 14 1 -2
BITMAP
1040
9440
57F8
5840
13F8
FE48
1358
3AE8
37F8
5440
90E0
1150
1248
1040
ENDCHAR
STARTCHAR uni25EE8
ENCODING 24296
SWIDTH 960 0
DWIDTH 14 0
BBX 13 14 1 -2
BITMAP
1040
9440
57F8
5840
13F8
FEB0
1340
38E0
3490
57E8
9160
1150
1248
1040
ENDCHAR
STARTCHAR uni25F23
ENCODING 24355
SWIDTH 960 0
DWIDTH 14 0
BBX 13 14 1 -2
BITMAP
1100
9500
55F8
5BD0
11D0
FFF8
11D0
39D0
35D0
57F8
9000
1350
12A8
14A8
ENDCHAR
STARTCHAR uni25F5C
ENCODING 24412
SWIDTH 960 0
DWIDTH 14 0
BBX 13 14 1 -2
BITMAP
1040
9470
57F8
5AD0
1370
FFF0
1350
3BF0
3750
57F0
9250
15A8
1598
1A70
ENDCHAR
STARTCHAR uni25FE0
ENCODING 24544
SWIDTH 960 0
DWIDTH 14 0
BBX 13 14 1 -2
BITMAP
1080
1080
1480
E7F8
28C0
1940
25F8
FF48
1148
5948
5548
5570
9040
1040
ENDCHAR
STARTCHAR uni25FD4
ENCODING 24532
SWIDTH 960 0
DWIDTH 14 0
BBX 13 14 1 -2
BITMAP
1040
1040
1440
E5F0
2840
1840
27F8
FD10
1290
58E0
5440
54A0
9310
1408
ENDCHAR
STARTCHAR uni2600C
ENCODING 24588
SWIDTH 960 0
DWIDTH 14 0
BBX 12 14 1 -2
BITMAP
2100
2100
2970
C950
37D0
32D0
4AD0
FAD0
2350
7550
69D0
6AF0
A450
2800
ENDCHAR
STARTCHAR uni25FFB
ENCODING 24571
SWIDTH 960 0
DWIDTH 14 0
BBX 13 14 1 -2
BITMAP
1100
1130
15C0
E508
2908
18F8
2400
FDF0
1110
59F0
5510
5510
91F0
1110
ENDCHAR
STARTCHAR uni26017
ENCODING 24599
SWIDTH 960 0
DWIDTH 14 0
BBX 13 14 1 -2
BITMAP
1040
1040
15F0
E440
2840
1BF8
24A0
FDB0
11B0
59A8
56A8
54A0
9120
1260
ENDCHAR
STARTCHAR uni26060
ENCODING 24672
SWIDTH 960 0
DWIDTH 14 0
BBX 12 14 1 -2
BITMAP
2000
2770
2D50
CD50
3550
3770
4D50
FD50
2550
7770
6D50
6C90
A090
2130
ENDCHAR
STARTCHAR uni260ED
ENCODING 24813
SWIDTH 960 0
DWIDTH 14 0
BBX 13 14 1 -2
BITMAP
1080
11E0
1520
E5E0
2920
19E0
2500
FDF8
1100
59F8
56A8
56A8
93E8
1230
ENDCHAR
STARTCHAR uni26270
ENCODING 25200
SWIDTH 960 0
DWIDTH 14 0
BBX 11 8 2 1
BITMAP
FFE0
A0A0
9120
9220
8220
FFE0
8020
8060
ENDCHAR
STARTCHAR uni26286
ENCODING 25222
SWIDTH 960 0
DWIDTH 14 0
BBX 13 12 1 -1
BITMAP
7FF0
4890
4890
7FF0
0200
2200
23F0
2200
2200
2200
2200
FFF8
ENDCHAR
STARTCHAR uni2634C
ENCODING 25420
SWIDTH 960 0
DWIDTH 14 0
BBX 13 13 1 -1
BITMAP
1040
0840
0880
0000
7FF0
0200
0200
3FE0
0200
0200
0200
0200
FFF8
ENDCHAR
STARTCHAR uni23D0E
ENCODING 15630
SWIDTH 960 0
DWIDTH 14 0
BBX 13 14 1 -2
BITMAP
1040
0840
0880
7FF0
0200
3FE0
0200
FFF8
0210
7F20
06C0
1A60
E218
0600
ENDCHAR
STARTCHAR uni26402
ENCODING 25602
SWIDTH 960 0
DWIDTH 14 0
BBX 13 14 1 -2
BITMAP
00A0
FC90
2490
6C80
6CF8
B790
2490
6CA0
6C60
B440
2448
24A8
2718
6C08
ENDCHAR
STARTCHAR uni2667E
ENCODING 26238
SWIDTH 960 0
DWIDTH 14 0
BBX 13 13 1 -2
BITMAP
7FF0
4A20
4940
4880
7BE0
4C98
4880
7FF0
4880
4880
4880
4FF8
9800
ENDCHAR
STARTCHAR uni266B0
ENCODING 26288
SWIDTH 960 0
DWIDTH 14 0
BBX 13 13 1 -2
BITMAP
7FF0
4890
4890
4910
7E60
4800
4FF8
7AA8
4AA8
4AA8
4CC8
4CC8
9998
ENDCHAR
STARTCHAR uni2671D
ENCODING 26397
SWIDTH 960 0
DWIDTH 14 0
BBX 13 14 1 -2
BITMAP
0080
7880
4FF8
4A20
4940
79C0
4E38
4A20
7BE0
4A20
4BE0
4C20
4C20
9820
ENDCHAR
STARTCHAR uni268DD
ENCODING 26845
SWIDTH 960 0
DWIDTH 14 0
BBX 12 13 2 -2
BITMAP
FFF0
8400
9400
97C0
9040
9040
9040
97C0
9440
8400
8400
FFF0
8000
ENDCHAR
STARTCHAR uni268EA
ENCODING 26858
SWIDTH 960 0
DWIDTH 14 0
BBX 13 13 1 -1
BITMAP
0200
FA00
A3F8
A400
FBE0
9220
93E0
9000
F7F0
A550
A550
FD50
8FF8
ENDCHAR
STARTCHAR uni26951
ENCODING 26961
SWIDTH 960 0
DWIDTH 14 0
BBX 11 14 2 -2
BITMAP
0400
1800
E3E0
8020
8020
8020
8020
F3E0
8020
8020
8020
8020
F3E0
8020
ENDCHAR
STARTCHAR uni2696F
ENCODING 26991
SWIDTH 960 0
DWIDTH 14 0
BBX 13 11 1 0
BITMAP
0900
35E0
2220
3DE0
2520
3DE0
2220
2520
7FF8
4010
8000
ENDCHAR
STARTCHAR uni269DD
ENCODING 27101
SWIDTH 960 0
DWIDTH 14 0
BBX 13 14 1 -2
BITMAP
0800
1618
E3E0
2220
24A0
FCA0
2EB8
22A0
7AA0
56A0
55F8
5600
7580
4878
ENDCHAR
STARTCHAR uni26A1E
ENCODING 27166
SWIDTH 960 0
DWIDTH 14 0
BBX 13 14 1 -2
BITMAP
0800
11F0
3C00
2400
3400
2FF8
2CA0
3EA0
E4A0
34A0
3520
5528
4628
8C18
ENDCHAR
STARTCHAR uni26A58
ENCODING 27224
SWIDTH 960 0
DWIDTH 14 0
BBX 13 14 1 -2
BITMAP
0840
1040
3DF8
2510
3600
2FF8
2C40
3F40
E570
3540
3540
55C0
4640
8C38
ENDCHAR
STARTCHAR uni26A8C
ENCODING 27276
SWIDTH 960 0
DWIDTH 14 0
BBX 13 14 1 -2
BITMAP
0840
1040
3DF8
2548
37F0
2CA0
2D10
3FF8
E410
35D0
3550
55D0
4550
8C30
ENDCHAR
STARTCHAR uni26AB7
ENCODING 27319
SWIDTH 960 0
DWIDTH 14 0
BBX 13 14 1 -2
BITMAP
1000
23F0
7AB0
4BD0
6BF0
5880
5FF0
7880
CFF8
6B50
6CA8
6BF0
4880
9FF8
ENDCHAR
STARTCHAR uni26C73
ENCODING 27763
SWIDTH 960 0
DWIDTH 14 0
BBX 13 14 1 -2
BITMAP
1040
0880
FFF8
0880
4890
7330
5550
4CD0
4890
5550
7FF0
4230
7FF0
4010
ENDCHAR
STARTCHAR uni26CDD
ENCODING 27869
SWIDTH 960 0
DWIDTH 14 0
BBX 13 14 1 -2
BITMAP
0880
0880
FFF8
0880
1FC0
1FC0
1040
1FC0
FFF8
1000
3FF0
C490
1910
6660
ENDCHAR
STARTCHAR uni26E65
ENCODING 28261
SWIDTH 960 0
DWIDTH 14 0
BBX 13 14 1 -2
BITMAP
0880
0880
FFF8
0880
7BF0
4A00
5BE0
63E0
5200
4FF8
4A90
7260
43A0
4C18
ENDCHAR
STARTCHAR uni26F94
ENCODING 28564
SWIDTH 960 0
DWIDTH 14 0
BBX 13 14 1 -2
BITMAP
0880
FFF8
0A80
3FF0
E200
3FE0
3FE0
2200
3FF0
4000
4FE0
4FE0
4820
4FE0
ENDCHAR
STARTCHAR uni26FF8
ENCODING 28664
SWIDTH 960 0
DWIDTH 14 0
BBX 13 14 1 -2
BITMAP
0880
FFF8
0880
F830
13C0
FA70
4A40
33F0
CFF8
0200
3FE0
3FE0
0220
FFF8
ENDCHAR
STARTCHAR uni26FF6
ENCODING 28662
SWIDTH 960 0
DWIDTH 14 0
BBX 13 14 1 -2
BITMAP
0880
FFF8
0880
F220
1FF8
1750
F550
9750
8710
F930
97F0
1110
1210
6460
ENDCHAR
STARTCHAR uni26FF7
ENCODING 28663
SWIDTH 960 0
DWIDTH 14 0
BBX 13 14 1 -2
BITMAP
0880
FFF8
0880
93C0
67E0
2D20
57E0
9520
37F0
5510
97F0
17F0
6108
20F8
ENDCHAR
STARTCHAR uni2710D
ENCODING 28941
SWIDTH 960 0
DWIDTH 14 0
BBX 13 14 1 -2
BITMAP
0880
FFF8
0880
13F0
7890
FDB0
4AD0
FC90
7DB0
82D0
FC90
29B8
4808
87F8
ENDCHAR
STARTCHAR uni27139
ENCODING 28985
SWIDTH 960 0
DWIDTH 14 0
BBX 13 14 1 -2
BITMAP
0880
FFF8
0880
7240
0FE0
F550
0540
7FF8
0050
7750
7720
5528
7758
4488
ENDCHAR
STARTCHAR uni273DB
ENCODING 29659
SWIDTH 960 0
DWIDTH 14 0
BBX 13 14 1 -2
BITMAP
0020
7820
FFF8
7A20
7920
7920
4820
7A60
3FE0
2220
3FE0
0220
03F0
FE08
ENDCHAR
STARTCHAR uni273DA
ENCODING 29658
SWIDTH 960 0
DWIDTH 14 0
BBX 13 14 1 -2
BITMAP
1000
FFE0
1120
7D28
0128
7E18
4C00
FBF0
1110
7CA0
7CA0
1440
1FA0
E218
ENDCHAR
STARTCHAR uni273FE
ENCODING 29694
SWIDTH 960 0
DWIDTH 14 0
BBX 12 14 1 -2
BITMAP
7FF0
4880
7FE0
4A80
7FF0
4FC0
7440
47C0
7FF0
3FE0
3FE0
2220
03F0
FE10
ENDCHAR
STARTCHAR uni27410
ENCODING 29712
SWIDTH 960 0
DWIDTH 14 0
BBX 13 14 1 -2
BITMAP
1040
13F8
1040
7DF0
5440
57F8
55F0
7D10
51F0
19F0
1510
1DF0
E590
0608
ENDCHAR
STARTCHAR uni27449
ENCODING 29769
SWIDTH 960 0
DWIDTH 14 0
BBX 13 14 1 -2
BITMAP
0600
3FE0
2020
3FE0
3FE0
2020
3FE0
1040
7DF0
5550
7DF0
5550
1E78
E388
ENDCHAR
STARTCHAR uni27615
ENCODING 30229
SWIDTH 960 0
DWIDTH 14 0
BBX 13 14 1 -2
BITMAP
2080
2080
2080
F880
1080
14F0
2880
3080
6880
A880
2080
2080
2FF8
2000
ENDCHAR
STARTCHAR uni27614
ENCODING 30228
SWIDTH 960 0
DWIDTH 14 0
BBX 13 14 1 -2
BITMAP
2000
2FF8
2080
F880
10C0
14A0
28A0
3090
6890
A880
2080
2080
2080
2080
ENDCHAR
STARTCHAR uni27631
ENCODING 30257
SWIDTH 960 0
DWIDTH 14 0
BBX 13 14 1 -2
BITMAP
2240
2240
2240
FA48
13C8
1650
2A60
3240
6A40
AA40
2240
22C8
2348
2C38
ENDCHAR
STARTCHAR uni27693
ENCODING 30355
SWIDTH 960 0
DWIDTH 14 0
BBX 13 14 1 -2
BITMAP
2030
23C0
2240
FBF8
1240
1620
2BA8
3498
6BF8
AA90
2290
2290
22E0
2080
ENDCHAR
STARTCHAR uni2770E
ENCODING 30478
SWIDTH 960 0
DWIDTH 14 0
BBX 13 14 1 -2
BITMAP
2510
2290
22A0
FFF8
1120
1620
2BD0
3088
6BF0
A880
27F8
2080
2080
2180
ENDCHAR
STARTCHAR uni27723
ENCODING 30499
SWIDTH 960 0
DWIDTH 14 0
BBX 13 14 1 -2
BITMAP
2080
2100
23E0
FA20
13E0
1620
2BE0
33F8
6A00
ABF8
22A8
2558
2508
2830
ENDCHAR
STARTCHAR uni27752
ENCODING 30546
SWIDTH 960 0
DWIDTH 14 0
BBX 13 14 1 -2
BITMAP
2140
2140
27F8
F940
11C0
17F8
2BF0
3290
6BF0
AA90
23F0
2140
2220
2410
ENDCHAR
STARTCHAR uni27985
ENCODING 31109
SWIDTH 960 0
DWIDTH 14 0
BBX 13 13 1 -2
BITMAP
7BF8
0210
FE10
0290
7A60
0220
7A20
0250
7A50
4A80
4B00
7BF8
4A00
ENDCHAR
STARTCHAR uni27A84
ENCODING 31364
SWIDTH 960 0
DWIDTH 14 0
BBX 13 14 1 -2
BITMAP
0100
79F0
0100
FFF8
0200
7EF0
0600
7AF0
0200
7AF0
4A90
4A90
7AF0
4A90
ENDCHAR
STARTCHAR uni27BB3
ENCODING 31667
SWIDTH 960 0
DWIDTH 14 0
BBX 13 14 1 -2
BITMAP
2910
2510
4510
93F8
1110
2910
2510
45F0
FD10
4510
4510
7D10
45F0
4110
ENDCHAR
STARTCHAR uni27BBE
ENCODING 31678
SWIDTH 960 0
DWIDTH 14 0
BBX 13 14 1 -2
BITMAP
04A0
1890
E510
9640
5840
10A0
7CA0
1110
FFF8
1110
2910
2510
43F0
8110
ENDCHAR
STARTCHAR uni27BC7
ENCODING 31687
SWIDTH 960 0
DWIDTH 14 0
BBX 13 14 1 -2
BITMAP
2840
2440
47F8
9110
10A0
2BF8
2400
45F0
FD50
45F0
4550
7DF0
4548
4038
ENDCHAR
STARTCHAR uni27CB8
ENCODING 31928
SWIDTH 960 0
DWIDTH 14 0
BBX 13 14 1 -2
BITMAP
0880
3080
D480
48F8
3080
D080
1880
2BF0
CA10
1A10
2A10
CA10
0BF0
3210
ENDCHAR
STARTCHAR uni27DA0
ENCODING 32160
SWIDTH 960 0
DWIDTH 14 0
BBX 13 14 1 -2
BITMAP
0200
FFF8
0200
1FC0
7FF0
4510
48D0
7FF0
1FC0
1FC0
1FC0
1040
1FC0
6030
ENDCHAR
STARTCHAR uni27E10
ENCODING 32272
SWIDTH 960 0
DWIDTH 14 0
BBX 13 14 1 -2
BITMAP
0030
7828
4FF8
4BE0
7820
4FE0
7BE0
4A60
4BE0
7BE8
3258
2BD8
4988
8248
ENDCHAR
STARTCHAR uni27FB7
ENCODING 32695
SWIDTH 960 0
DWIDTH 14 0
BBX 9 13 3 -2
BITMAP
7F00
4100
4100
7F00
4900
0800
4800
4F00
4800
4980
4E00
7000
C000
ENDCHAR
STARTCHAR uni2808A
ENCODING 32906
SWIDTH 960 0
DWIDTH 14 0
BBX 12 13 1 -2
BITMAP
7BF0
4A90
4A90
7BF0
1290
53F0
5E10
53F0
5330
5F30
75F0
C510
0830
ENDCHAR
STARTCHAR uni280BB
ENCODING 32955
SWIDTH 960 0
DWIDTH 14 0
BBX 13 14 1 -2
BITMAP
0030
7FC8
4C88
4A50
7A60
1000
52F0
5E90
5290
52F0
5E90
7290
C2F0
0290
ENDCHAR
STARTCHAR uni28282
ENCODING 33410
SWIDTH 960 0
DWIDTH 14 0
BBX 13 14 1 -2
BITMAP
1000
27F0
7690
55B0
75D0
57F0
7080
57F0
F080
3FF8
5000
96A0
1550
3950
ENDCHAR
STARTCHAR uni282F3
ENCODING 33523
SWIDTH 960 0
DWIDTH 14 0
BBX 12 14 1 -2
BITMAP
1000
13F0
FE90
1290
7E90
57F0
7E90
5690
7ED0
1330
FF30
1210
13F0
1210
ENDCHAR
STARTCHAR uni2840C
ENCODING 33804
SWIDTH 960 0
DWIDTH 14 0
BBX 13 14 1 -2
BITMAP
0200
0200
7FF0
1040
0840
0880
FFF8
0200
3FE0
0200
0200
7FF0
0200
0200
ENDCHAR
STARTCHAR uni28455
ENCODING 33877
SWIDTH 960 0
DWIDTH 14 0
BBX 13 13 1 -2
BITMAP
47F0
2410
2410
0410
0410
E410
2410
2410
2410
27F0
3410
4C00
83F8
ENDCHAR
STARTCHAR uni2856B
ENCODING 34155
SWIDTH 960 0
DWIDTH 14 0
BBX 13 14 1 -2
BITMAP
2220
1220
1220
4FF8
21A8
21A8
02F8
E7A8
2BF8
22A8
2220
3220
4C00
83F8
ENDCHAR
STARTCHAR uni285C8
ENCODING 34248
SWIDTH 960 0
DWIDTH 14 0
BBX 13 14 1 -2
BITMAP
2000
13E0
13E0
4220
23E0
2FF8
03E0
E220
23E0
22A0
2490
3988
4C00
83F8
ENDCHAR
STARTCHAR uni285C9
ENCODING 34249
SWIDTH 960 0
DWIDTH 14 0
BBX 13 14 1 -2
BITMAP
2080
17F8
1550
4940
2238
27F0
0308
E590
2EE0
21A0
2E98
3180
4C00
83F8
ENDCHAR
STARTCHAR uni286D7
ENCODING 34519
SWIDTH 960 0
DWIDTH 14 0
BBX 11 13 2 -2
BITMAP
7BE0
4A20
4A40
7A40
0280
FA40
AA20
AA20
FA20
8B20
82C0
8A00
7A00
ENDCHAR
STARTCHAR uni286FA
ENCODING 34554
SWIDTH 960 0
DWIDTH 14 0
BBX 12 14 1 -2
BITMAP
2400
25F0
2510
FF20
2520
3D40
2520
3D10
2510
FF10
2990
2560
4500
8100
ENDCHAR
STARTCHAR uni28949
ENCODING 35145
SWIDTH 960 0
DWIDTH 14 0
BBX 12 14 1 -2
BITMAP
1080
1080
2880
2690
4690
BA90
1290
FE90
1290
5690
3A90
3290
1FF0
E210
ENDCHAR
STARTCHAR uni28946
ENCODING 35142
SWIDTH 960 0
DWIDTH 14 0
BBX 13 14 1 -2
BITMAP
1100
1100
2900
25E0
4620
BA20
1240
FC40
10C0
54C0
3920
3120
1E10
E408
ENDCHAR
STARTCHAR uni2896B
ENCODING 35179
SWIDTH 960 0
DWIDTH 14 0
BBX 13 13 1 -1
BITMAP
0C00
71F0
4510
4510
5D10
6510
C9E0
1300
0D80
F778
3FE0
1240
7FF0
ENDCHAR
STARTCHAR uni28987
ENCODING 35207
SWIDTH 960 0
DWIDTH 14 0
BBX 13 14 1 -2
BITMAP
1080
1080
2880
27F8
4490
BA90
12A0
FFF8
1080
5540
3940
3220
1E10
E408
ENDCHAR
STARTCHAR uni28988
ENCODING 35208
SWIDTH 960 0
DWIDTH 14 0
BBX 12 14 1 -2
BITMAP
1140
1140
2940
27F0
4750
BB50
1350
FFF0
1350
5750
3B50
33F0
1E10
E210
ENDCHAR
STARTCHAR uni289BA
ENCODING 35258
SWIDTH 960 0
DWIDTH 14 0
BBX 13 14 1 -2
BITMAP
1000
11F0
2910
2510
45F0
B800
13F0
FE50
1250
57F0
3A10
3208
1E08
E1F8
ENDCHAR
STARTCHAR uni289BB
ENCODING 35259
SWIDTH 960 0
DWIDTH 14 0
BBX 13 14 1 -2
BITMAP
1000
11F0
2950
2550
45F0
B950
1150
FDF0
1040
57F8
3848
3088
1D08
E230
ENDCHAR
STARTCHAR uni28A1E
ENCODING 35358
SWIDTH 960 0
DWIDTH 14 0
BBX 13 14 1 -2
BITMAP
1160
1130
2B28
24C0
4520
BA58
1180
FD00
11F8
5520
3920
3220
1E20
E420
ENDCHAR
STARTCHAR uni28A29
ENCODING 35369
SWIDTH 960 0
DWIDTH 14 0
BBX 13 14 1 -2
BITMAP
1040
1040
29F0
2550
4550
B950
11F0
FD50
1040
54D0
39A8
3188
1E90
E070
ENDCHAR
STARTCHAR uni28A71
ENCODING 35441
SWIDTH 960 0
DWIDTH 14 0
BBX 13 14 1 -2
BITMAP
1040
1040
2BF8
2510
44A0
BBF8
1220
FE40
1390
5660
3B88
3210
1C60
E180
ENDCHAR
STARTCHAR uni28A43
ENCODING 35395
SWIDTH 960 0
DWIDTH 14 0
BBX 13 14 1 -2
BITMAP
1080
1080
2BF0
2480
47E0
B940
17F8
FE20
13F0
5628
3BE0
3220
1FE0
E220
ENDCHAR
STARTCHAR uni28A99
ENCODING 35481
SWIDTH 960 0
DWIDTH 14 0
BBX 13 14 1 -2
BITMAP
2210
2260
33C8
4B28
4EB0
F680
2210
FBF8
2290
AE50
7250
6210
3A10
C230
ENDCHAR
STARTCHAR uni28ACD
ENCODING 35533
SWIDTH 960 0
DWIDTH 14 0
BBX 13 14 1 -2
BITMAP
1080
13F8
2880
27F0
4690
BBF0
1290
FFF0
1080
5550
3B48
3308
1D10
E0F0
ENDCHAR
STARTCHAR uni28AE4
ENCODING 35556
SWIDTH 960 0
DWIDTH 14 0
BBX 13 14 1 -2
BITMAP
2800
27F0
34A0
4840
4DF0
F550
21F0
FD50
25F0
AD50
7550
6530
3F00
C8F8
ENDCHAR
STARTCHAR uni28ADD
ENCODING 35549
SWIDTH 960 0
DWIDTH 14 0
BBX 13 14 1 -2
BITMAP
1200
1200
2BF0
2480
47F8
B920
13F8
FE40
13F0
5640
3BF0
3240
1FF8
E200
ENDCHAR
STARTCHAR uni28BC1
ENCODING 35777
SWIDTH 960 0
DWIDTH 14 0
BBX 13 14 1 -2
BITMAP
2200
2378
32B0
4FA0
4AF8
F268
2F78
FFE8
27F8
AAE8
72E8
62D8
3A80
C378
ENDCHAR
STARTCHAR uni28BEF
ENCODING 35823
SWIDTH 960 0
DWIDTH 14 0
BBX 13 14 1 -2
BITMAP
2040
24F0
32D0
4AF0
4BF8
F0F0
2690
FAF0
22F0
AA90
72F0
6290
3D08
C8F8
ENDCHAR
STARTCHAR uni28D10
ENCODING 36112
SWIDTH 960 0
DWIDTH 14 0
BBX 11 13 2 -2
BITMAP
FBE0
8A20
FBE0
8A20
FBE0
9420
BFA0
C420
FFE0
8A20
92A0
A1A0
8060
ENDCHAR
STARTCHAR uni28D71
ENCODING 36209
SWIDTH 960 0
DWIDTH 14 0
BBX 11 13 2 -2
BITMAP
FBE0
8A20
FBE0
FBE0
8020
BFA0
BFA0
BFA0
A920
BEA0
BF60
C420
BF60
ENDCHAR
STARTCHAR uni28DFB
ENCODING 36347
SWIDTH 960 0
DWIDTH 14 0
BBX 11 13 2 -2
BITMAP
FBE0
8A20
FBE0
FBE0
A6A0
DF60
D160
A6A0
C960
FFE0
B6A0
DFE0
96E0
ENDCHAR
STARTCHAR uni28E1F
ENCODING 36383
SWIDTH 960 0
DWIDTH 14 0
BBX 12 13 2 -2
BITMAP
F7F0
9420
A420
C520
A4C0
9440
9440
94E0
9520
E600
8400
87F0
8400
ENDCHAR
STARTCHAR uni28E36
ENCODING 36406
SWIDTH 960 0
DWIDTH 14 0
BBX 12 13 2 -2
BITMAP
FFF0
9100
A540
C520
A920
9100
9FF0
9100
9100
E100
8100
8100
8100
ENDCHAR
STARTCHAR uni28E89
ENCODING 36489
SWIDTH 960 0
DWIDTH 14 0
BBX 12 14 2 -2
BITMAP
0020
F0C0
9F20
A490
C490
A900
9100
9FF0
9380
9380
E540
8920
9110
8100
ENDCHAR
STARTCHAR uni28EEB
ENCODING 36587
SWIDTH 960 0
DWIDTH 14 0
BBX 12 14 2 -2
BITMAP
0100
F100
9FE0
A440
C280
AFF0
9000
97C0
9540
97C0
E540
87D0
8510
80F0
ENDCHAR
STARTCHAR uni28F32
ENCODING 36658
SWIDTH 960 0
DWIDTH 14 0
BBX 12 14 2 -2
BITMAP
0240
FFF0
9240
A180
C240
A7E0
9A10
93C0
93C0
9200
EFF0
8280
84C0
8F20
ENDCHAR
STARTCHAR uni28FF8
ENCODING 36856
SWIDTH 960 0
DWIDTH 14 0
BBX 13 14 1 -2
BITMAP
0490
1890
E4A0
95F8
5920
1320
7DF0
1120
FF20
11F0
2920
2520
43F8
8100
ENDCHAR
STARTCHAR uni292A0
ENCODING 37536
SWIDTH 960 0
DWIDTH 14 0
BBX 13 14 1 -2
BITMAP
2840
2840
FE48
2948
3950
1040
7FF8
54A0
7CA0
10A0
FF20
1128
1228
1418
ENDCHAR
STARTCHAR uni292B1
ENCODING 37553
SWIDTH 960 0
DWIDTH 14 0
BBX 13 14 1 -2
BITMAP
2900
2900
FFF8
2A00
3BF0
1110
7D50
57F8
7E10
1250
FFF8
1010
1010
1060
ENDCHAR
STARTCHAR uni29490
ENCODING 38032
SWIDTH 960 0
DWIDTH 14 0
BBX 13 13 1 -2
BITMAP
FFF8
2040
2880
45F0
FD10
15F0
1110
7DF0
1110
11F0
1CA0
E110
0208
ENDCHAR
STARTCHAR uni295CF
ENCODING 38351
SWIDTH 960 0
DWIDTH 14 0
BBX 13 13 1 -2
BITMAP
FFF8
0880
7FF0
4890
7FF0
3FE0
3E20
2FA0
2AA0
2FA0
4AA8
43D8
9C48
ENDCHAR
STARTCHAR uni2967F
ENCODING 38527
SWIDTH 960 0
DWIDTH 14 0
BBX 11 14 2 -2
BITMAP
0400
0400
0A00
1F00
2080
FFE0
2080
3F80
2080
3F80
3F80
2000
3F80
2000
ENDCHAR
STARTCHAR uni296F0
ENCODING 38640
SWIDTH 960 0
DWIDTH 14 0
BBX 13 14 1 -2
BITMAP
0240
FFF8
0310
66A0
1A40
E638
0500
1FC0
EFF8
0880
0F80
0FA0
0FC0
7870
ENDCHAR
STARTCHAR uni29719
ENCODING 38681
SWIDTH 960 0
DWIDTH 14 0
BBX 13 14 1 -2
BITMAP
1080
1880
27F8
5480
91A0
7FF0
4520
7D20
47F8
7D40
4940
4A48
7648
C438
ENDCHAR
STARTCHAR uni29750
ENCODING 38736
SWIDTH 960 0
DWIDTH 14 0
BBX 13 14 1 -2
BITMAP
1220
1120
2940
3FF8
4620
FA20
4AA8
7CC8
4D50
7B30
7A20
4550
7FF8
4088
ENDCHAR
STARTCHAR uni298C6
ENCODING 39110
SWIDTH 960 0
DWIDTH 14 0
BBX 13 14 1 -2
BITMAP
0110
7E90
48A0
7DF8
4840
7C40
49F0
7E40
0A40
77F8
5E40
5A40
8440
1840
ENDCHAR
STARTCHAR uni29A72
ENCODING 39538
SWIDTH 960 0
DWIDTH 14 0
BBX 13 13 1 -2
BITMAP
7DF0
4510
5DF0
5510
FFF0
8500
7DF8
4688
7E88
4748
7F28
47C8
4C30
ENDCHAR
STARTCHAR uni29DDB
ENCODING 40411
SWIDTH 960 0
DWIDTH 14 0
BBX 12 14 1 -2
BITMAP
1080
10F0
3D20
4A40
FDF0
5550
7D50
55F0
7D50
0950
75F0
5E10
5210
8430
ENDCHAR
STARTCHAR uni29E3D
ENCODING 40509
SWIDTH 960 0
DWIDTH 14 0
BBX 13 14 1 -2
BITMAP
1120
1120
3FF8
4920
FD40
54C0
7CC8
5550
7F60
09C0
7540
5D48
5148
8138
ENDCHAR
STARTCHAR uni29E15
ENCODING 40469
SWIDTH 960 0
DWIDTH 14 0
BBX 13 14 1 -2
BITMAP
1000
11F0
3D00
49E0
FD00
55E0
7D00
57F8
7D50
0960
7520
5D60
5190
8608
ENDCHAR
STARTCHAR uni29E8A
ENCODING 40586
SWIDTH 960 0
DWIDTH 14 0
BBX 13 14 1 -2
BITMAP
10A0
13F8
3CA0
4840
FFF8
5500
7D00
54F0
7DA0
09A0
75A0
5DA8
52A8
8418
ENDCHAR
STARTCHAR uni29E49
ENCODING 40521
SWIDTH 960 0
DWIDTH 14 0
BBX 13 14 1 -2
BITMAP
1000
13E8
3CB0
49A8
FEA0
56A8
7E98
57E8
7EB0
0AA8
76A0
5EA8
5498
8088
ENDCHAR
STARTCHAR uni29EC4
ENCODING 40644
SWIDTH 960 0
DWIDTH 14 0
BBX 13 14 1 -2
BITMAP
1000
13F8
3EA8
4BF8
FC80
5510
7E90
54E0
7D40
0AC0
7560
5E50
5048
8180
ENDCHAR
STARTCHAR uni29EE9
ENCODING 40681
SWIDTH 960 0
DWIDTH 14 0
BBX 13 14 1 -2
BITMAP
1080
1280
3EE0
4A80
FFF8
5400
7D20
5760
7F60
0BF8
7760
5F60
53F8
8400
ENDCHAR
STARTCHAR uni29EDB
ENCODING 40667
SWIDTH 960 0
DWIDTH 14 0
BBX 13 14 1 -2
BITMAP
1090
13F8
3ED0
4BF8
FDB0
56D8
7C98
55F0
7D10
09F0
7510
5D10
51F0
8110
ENDCHAR
STARTCHAR uni29FCE
ENCODING 40910
SWIDTH 960 0
DWIDTH 14 0
BBX 13 14 1 -2
BITMAP
0040
7E80
25F0
1910
11F0
FF10
13F0
15F8
1900
11F8
10A8
1158
1288
3030
ENDCHAR
STARTCHAR uni2A02F
ENCODING 41007
SWIDTH 960 0
DWIDTH 14 0
BBX 13 14 1 -2
BITMAP
1040
1080
95F0
5510
59F0
1110
FDF0
29F8
2900
2BF8
2CA8
4958
4A88
8030
ENDCHAR
STARTCHAR uni2A01A
ENCODING 40986
SWIDTH 960 0
DWIDTH 14 0
BBX 13 14 1 -2
BITMAP
1040
2050
7848
4BF8
7A40
4A50
7BD0
7ED0
42A0
7EA0
3EA8
5DD8
A498
1908
ENDCHAR
STARTCHAR uni2A0F9
ENCODING 41209
SWIDTH 960 0
DWIDTH 14 0
BBX 13 13 1 -2
BITMAP
7DF0
7D10
7D10
4960
7FC0
C840
0FC0
0FC0
0FF8
0FF0
2A90
2550
4060
ENDCHAR
STARTCHAR uni2A082
ENCODING 41090
SWIDTH 960 0
DWIDTH 14 0
BBX 13 14 1 -2
BITMAP
1040
1080
FDF0
1110
7DF0
4510
7DF0
45F8
7D00
11F8
FCA8
1158
1288
1030
ENDCHAR
STARTCHAR uni22218
ENCODING 8728
SWIDTH 960 0
DWIDTH 14 0
BBX 13 14 1 -2
BITMAP
0100
0100
3FF8
2280
3FF0
2290
2290
3FF0
2290
2280
46C0
4AA0
9290
2288
ENDCHAR
STARTCHAR uni2A38C
ENCODING 41868
SWIDTH 960 0
DWIDTH 14 0
BBX 13 14 1 -2
BITMAP
1040
1040
FFF8
1150
7CE0
13F8
FE40
20E0
3CE0
6550
9A48
0840
3600
C1F8
ENDCHAR
STARTCHAR uni2A437
ENCODING 42039
SWIDTH 960 0
DWIDTH 14 0
BBX 13 14 1 -2
BITMAP
0040
7E40
6A40
5FF8
5A40
7E50
0990
7EA0
0CE0
F040
3460
5A90
5BF8
8008
ENDCHAR
STARTCHAR uni2A5F1
ENCODING 42481
SWIDTH 960 0
DWIDTH 14 0
BBX 13 14 1 -2
BITMAP
0800
28F0
2E90
2890
FE90
52F0
7690
5A90
7EF0
5A90
7690
5290
7FF8
4200
ENDCHAR
STARTCHAR uni2A602
ENCODING 42498
SWIDTH 960 0
DWIDTH 14 0
BBX 13 14 1 -2
BITMAP
1000
FFF0
1090
7C90
1310
1E60
E3E0
FFF8
3260
3FE0
2AA0
3260
3FE0
2020
ENDCHAR
STARTCHAR uni2A61A
ENCODING 42522
SWIDTH 960 0
DWIDTH 14 0
BBX 13 14 1 -2
BITMAP
0800
29F0
2E40
2840
FFF0
5290
7690
5BF8
7E00
5BF0
7710
5310
7FF0
4110
ENDCHAR
STARTCHAR uni2A6B2
ENCODING 42674
SWIDTH 960 0
DWIDTH 14 0
BBX 13 14 1 -2
BITMAP
0100
79E0
4A40
4FE0
7AA0
4BE0
4BE0
7FF0
4C90
4FF0
4C90
4FF0
4888
9878
ENDCHAR
ENDFONT
